# xmcd
#
# Track frame offsets:
# 182
# 18450
# 29537
# 42100
# 55150
# 73237
# 87550
# 100137
# 110662
# 121387
# 142537
# 153462
# 165675
# 181062
# 195637
# 209025
#
# Disc length: 2963 seconds
#
#
# Revision: 0
# Processed by: cddbd v1.5.2PL0 Copyright (c) Steve Scherf et al.
# Submitted via: FreeRIP 2.951 
#
DISCID=e00b9110
DTITLE=Summer Dreams - Summer Dreams
DYEAR=0090
DGENRE=Pop
TTITLE0=Adama - Mare
TTITLE1=Al Martino - Somewhere My
TTITLE2=Francesco Mapoli - I Love to Love
TTITLE3=Engelbert - My Foolish Heart
TTITLE4=Demis Roussos - Good By My Love Goodby
TTITLE5=Dean Martin - My Heard Cries For You
TTITLE6=Billy Ocean - What'sw Gonna Happen To Our Love
TTITLE7=Roy Orbison - Lonseome Number One
TTITLE8=Oliva Newton John - Ti Amo
TTITLE9=Claudia Barry - Womon You Took My Life
TTITLE10=John Kincade - Till I Kissed You
TTITLE11=Pat Boone - April Lover
TTITLE12=Tony Versace - Please Release Me
TTITLE13=Gene Pitney - Looking Through The Eyes Of Love
TTITLE14=Mike Black - Sweet Dreams
TTITLE15=Uschi Caretta - Malaika
EXTD=
EXTT0=
EXTT1=
EXTT2=
EXTT3=
EXTT4=
EXTT5=
EXTT6=
EXTT7=
EXTT8=
EXTT9=
EXTT10=
EXTT11=
EXTT12=
EXTT13=
EXTT14=
EXTT15=
PLAYORDER=
